<svg width="32" height="33" viewBox="0 0 32 33" fill="none" xmlns="http://www.w3.org/2000/svg">
<mask id="mask0_211_2991" style="mask-type:luminance" maskUnits="userSpaceOnUse" x="0" y="0" width="32" height="33">
<rect y="0.5" width="32" height="32" fill="white"/>
</mask>
<g mask="url(#mask0_211_2991)">
<path d="M13.6702 8.34582L14.0414 13.8658L14.2257 16.6402C14.2277 16.9255 14.2723 17.209 14.3586 17.4814C14.5811 18.0102 15.1166 18.3462 15.6991 18.3227L24.5754 17.742C24.9598 17.7358 25.331 17.8795 25.6073 18.1418C25.8375 18.3603 25.9862 18.6462 26.0331 18.9536L26.0489 19.1403C25.6815 24.2266 21.9459 28.469 16.8702 29.564C11.7944 30.6591 6.58947 28.3458 4.08127 23.8799C3.35818 22.5824 2.90652 21.1564 2.75283 19.6854C2.68863 19.2499 2.66036 18.81 2.6683 18.37C2.66036 12.917 6.54362 8.20265 11.9794 7.06613C12.6337 6.96425 13.275 7.3106 13.5374 7.90741C13.6053 8.04562 13.6501 8.19365 13.6702 8.34582Z" fill="white"/>
<path opacity="0.4" d="M29.3337 13.583L29.3244 13.6265L29.2975 13.6897L29.3012 13.8632C29.2873 14.0929 29.1985 14.314 29.0457 14.4926C28.8864 14.6786 28.6688 14.8053 28.4292 14.8545L28.2831 14.8745L18.042 15.5381C17.7013 15.5717 17.3621 15.4618 17.1089 15.236C16.8977 15.0476 16.7628 14.7934 16.7247 14.5196L16.0373 4.29337C16.0253 4.2588 16.0253 4.22132 16.0373 4.18673C16.0467 3.90485 16.1708 3.63841 16.3819 3.44693C16.5928 3.25545 16.8733 3.15489 17.1604 3.16772C23.2403 3.3224 28.3501 7.69435 29.3337 13.583Z" fill="white"/>
</g>
</svg>
