<svg width="2" height="9" viewBox="0 0 2 9" fill="none" xmlns="http://www.w3.org/2000/svg">
<path d="M1.375 0.6875C1.375 1.0672 1.0672 1.375 0.6875 1.375C0.307804 1.375 0 1.0672 0 0.6875C0 0.307804 0.307804 0 0.6875 0C1.0672 0 1.375 0.307804 1.375 0.6875Z" fill="black"/>
<path d="M1.375 4.35417C1.375 4.73386 1.0672 5.04167 0.6875 5.04167C0.307804 5.04167 0 4.73386 0 4.35417C0 3.97447 0.307804 3.66667 0.6875 3.66667C1.0672 3.66667 1.375 3.97447 1.375 4.35417Z" fill="black"/>
<path d="M0.6875 8.70833C1.0672 8.70833 1.375 8.40053 1.375 8.02083C1.375 7.64114 1.0672 7.33333 0.6875 7.33333C0.307804 7.33333 0 7.64114 0 8.02083C0 8.40053 0.307804 8.70833 0.6875 8.70833Z" fill="black"/>
</svg>
