<svg width="15" height="16" viewBox="0 0 15 16" fill="none" xmlns="http://www.w3.org/2000/svg">
<path d="M8.125 6.125C8.125 5.77982 7.84518 5.5 7.5 5.5C7.15482 5.5 6.875 5.77982 6.875 6.125V7.375H5.625C5.27982 7.375 5 7.65482 5 8C5 8.34518 5.27982 8.625 5.625 8.625H6.875V9.875C6.875 10.2202 7.15482 10.5 7.5 10.5C7.84518 10.5 8.125 10.2202 8.125 9.875V8.625H9.375C9.72018 8.625 10 8.34518 10 8C10 7.65482 9.72018 7.375 9.375 7.375H8.125V6.125Z" fill="#2A444A"/>
<path fill-rule="evenodd" clip-rule="evenodd" d="M7.5 1.75C4.04822 1.75 1.25 4.54822 1.25 8C1.25 11.4518 4.04822 14.25 7.5 14.25C10.9518 14.25 13.75 11.4518 13.75 8C13.75 4.54822 10.9518 1.75 7.5 1.75ZM2.5 8C2.5 5.23858 4.73858 3 7.5 3C10.2614 3 12.5 5.23858 12.5 8C12.5 10.7614 10.2614 13 7.5 13C4.73858 13 2.5 10.7614 2.5 8Z" fill="#2A444A"/>
</svg>
