<svg width="20" height="20" viewBox="0 0 20 20" fill="none" xmlns="http://www.w3.org/2000/svg">
<path d="M12.6459 1.14553C12.5367 1.14553 12.4282 1.18735 12.3451 1.27095L12.3435 1.27261C12.178 1.4391 12.1789 1.70817 12.3454 1.87364C12.4283 1.95599 12.5366 1.99715 12.6449 1.99715C12.7542 1.99715 12.8634 1.95534 12.9464 1.87173L12.948 1.87007C13.1135 1.70358 13.1127 1.43451 12.9462 1.26905C12.8632 1.18667 12.7553 1.14553 12.647 1.14553H12.6459ZM7.09904 1C6.99102 0.999668 6.88365 1.0419 6.8013 1.12438C6.63544 1.29047 6.63566 1.55955 6.80176 1.72541L8.8134 3.73429L11.0833 3.73431L12.1309 2.68665C12.2969 2.52073 12.297 2.25163 12.1311 2.08558C12.0481 2.00251 11.9393 1.96099 11.8305 1.96099C11.7218 1.96099 11.613 2.00246 11.5301 2.08535L9.94824 3.66594L7.40233 1.12392C7.31937 1.04106 7.21066 1 7.10202 1H7.09904ZM9.87455 9.05453C9.73319 9.05453 9.59198 9.10944 9.48566 9.21881C9.27682 9.43359 9.28167 9.77695 9.4964 9.98573C9.60182 10.0882 9.73814 10.1392 9.87439 10.1392C10.0157 10.1392 10.157 10.0843 10.2633 9.97495C10.4721 9.76017 10.4673 9.41679 10.2525 9.20803C10.1489 9.10729 10.0148 9.05457 9.88073 9.05457L9.87455 9.05453ZM9.87618 8.22313C10.221 8.22344 10.5655 8.35249 10.8322 8.61186C11.3762 9.14075 11.3884 10.0106 10.8595 10.5546C10.5901 10.8316 10.2325 10.9708 9.87433 10.9708C9.52918 10.9708 9.18373 10.8415 8.91673 10.5819C8.3727 10.053 8.36054 9.18312 8.88945 8.63913C9.15724 8.36372 9.51172 8.22303 9.86761 8.22303L9.87618 8.22313ZM7.94674 7.18206C8.05285 7.18236 8.15806 7.22314 8.23813 7.3049L8.23862 7.3054C8.39688 7.46687 8.39395 7.72648 8.23224 7.88482L8.23141 7.88562C8.22663 7.88998 8.22049 7.896 8.21533 7.90079L8.20965 7.90606L8.20773 7.90801C8.20337 7.91215 8.2019 7.91407 8.19792 7.91826C8.19478 7.92161 8.19361 7.92285 8.19038 7.92619L8.19012 7.92646C7.26955 8.87299 7.29093 10.3869 8.23773 11.308L8.23806 11.3084C8.40026 11.4662 8.40409 11.7249 8.2463 11.8873L8.24602 11.8875C8.16564 11.9702 8.05895 12.0117 7.95209 12.0117C7.84914 12.0117 7.74611 11.9731 7.66647 11.896C6.39488 10.6597 6.36635 8.62632 7.60265 7.35473C7.61071 7.34643 7.62206 7.3354 7.63058 7.32721C7.6342 7.3237 7.63467 7.32325 7.63809 7.31995L7.63878 7.31932L7.63985 7.31822C7.64646 7.31085 7.65134 7.30577 7.65846 7.2988C7.73795 7.22097 7.84 7.18208 7.94299 7.18208L7.94674 7.18206ZM11.8048 7.1821C11.9078 7.1821 12.011 7.22101 12.0904 7.2988C12.0972 7.30538 12.1335 7.34189 12.1335 7.34189L12.1338 7.34218C12.1382 7.34614 12.1422 7.35056 12.1462 7.35461C13.3825 8.6262 13.3542 10.6595 12.0826 11.8959L12.0823 11.8962C12.0027 11.973 11.8998 12.0117 11.7968 12.0117C11.6899 12.0117 11.5833 11.9702 11.5029 11.8875L11.5013 11.8858C11.3451 11.7231 11.3492 11.4656 11.5109 11.3084L11.5111 11.3081C12.4579 10.3871 12.4791 8.87305 11.5586 7.92621C11.553 7.92044 11.5506 7.91784 11.5506 7.91784C11.5418 7.90857 11.5402 7.90702 11.5402 7.90702L11.5277 7.89536C11.5244 7.89199 11.5173 7.88545 11.5167 7.88482C11.355 7.7265 11.3522 7.46703 11.5104 7.30525L11.5108 7.3049C11.5911 7.22286 11.6967 7.18208 11.8031 7.18208L11.8048 7.1821ZM6.19421 5.71067H6.19679C6.30275 5.71096 6.40838 5.75189 6.48833 5.83357L6.48887 5.83413C6.64713 5.99558 6.64419 6.25517 6.48249 6.41349L6.48191 6.41404C6.47633 6.41953 6.46282 6.43197 6.45932 6.43521L6.45862 6.43591C6.44494 6.44948 6.41471 6.48067 6.40495 6.49072C4.69289 8.25119 4.73236 11.0669 6.49303 12.7793L6.49353 12.7798C6.6558 12.9373 6.65946 13.1963 6.50166 13.3586C6.42131 13.4412 6.31438 13.483 6.20751 13.483C6.1045 13.483 6.0015 13.4445 5.92182 13.367C3.83627 11.3393 3.78944 8.00473 5.8172 5.91921C5.84047 5.89526 5.86239 5.87386 5.88623 5.85059C5.88875 5.84813 5.88645 5.85039 5.88884 5.84804L5.89051 5.84639C5.89669 5.83955 5.90204 5.83393 5.90872 5.82739C5.987 5.75076 6.08657 5.71079 6.18759 5.71079L6.19421 5.71067ZM13.5567 5.71108C13.6593 5.71108 13.7611 5.7499 13.8402 5.82739C13.8468 5.8339 13.8522 5.83952 13.8584 5.84639L13.8632 5.85109C13.8868 5.87422 13.9086 5.89542 13.9317 5.91921C15.9595 8.00475 15.9128 11.3394 13.8273 13.3672L13.827 13.3675C13.7473 13.4446 13.6444 13.483 13.5414 13.483C13.4346 13.483 13.3278 13.4415 13.2475 13.3588L13.2468 13.3581C13.0896 13.1954 13.0935 12.9372 13.2556 12.7797L13.2559 12.7793C15.0166 11.0669 15.056 8.25151 13.344 6.49072C13.335 6.48118 13.3259 6.47207 13.3209 6.46693L13.3206 6.46666C13.3097 6.45504 13.3018 6.44731 13.2903 6.43591C13.2816 6.42781 13.2788 6.42523 13.2788 6.42523C13.2747 6.42163 13.2699 6.41683 13.2664 6.41349C13.1047 6.25517 13.102 5.99573 13.2602 5.83394L13.2606 5.83357C13.3408 5.75163 13.4465 5.71108 13.5529 5.71108H13.5567ZM2.25877 4.56836L2.25742 4.5684C1.83664 4.57991 1.5 4.92468 1.5 5.34827L1.50001 14.61L1.51513 14.6251L18.2338 14.6252L18.2489 14.6101L18.2489 5.34885C18.2489 4.92524 17.9115 4.58047 17.4907 4.56896L2.25877 4.56836ZM2.97381 15.8636H2.97426C3.11937 15.8636 3.2369 15.9813 3.2369 16.1264V16.1267C3.2369 16.2718 3.11923 16.3895 2.97411 16.3895C2.82898 16.3895 2.71131 16.2718 2.71131 16.1267V16.1264C2.71131 15.9813 2.82871 15.8636 2.97381 15.8636ZM5.71961 15.8636V15.8639C5.86472 15.8636 5.9824 15.9813 5.98239 16.1264C5.98238 16.2715 5.86473 16.3892 5.71958 16.3895L4.02096 16.3891C3.87585 16.389 3.75818 16.2713 3.75819 16.1262C3.7582 15.9811 3.87554 15.8635 4.02066 15.8635L5.71961 15.8636ZM1.51513 15.4442V15.4446L1.50001 15.4594V16.0386C1.50001 16.4622 1.83742 16.807 2.25818 16.8185L17.4908 16.8189C17.9115 16.8067 18.2489 16.4618 18.2489 16.0383L18.2489 15.4598L18.2338 15.4447L1.51513 15.4442ZM6.71386 18.1491H6.71179C6.47709 18.1491 6.28798 18.3393 6.28796 18.574C6.28794 18.8088 6.47819 18.9991 6.71292 18.9991L13.036 19C13.2707 18.9997 13.461 18.8094 13.461 18.5747C13.461 18.34 13.2707 18.1497 13.036 18.1496L6.71386 18.1491Z" fill="white"/>
</svg>
